<?xml version="1.0" encoding="iso-8859-1"?>
<!-- Generator: Adobe Illustrator 16.0.0, SVG Export Plug-In . SVG Version: 6.00 Build 0)  -->
<!DOCTYPE svg PUBLIC "-//W3C//DTD SVG 1.1//EN" "http://www.w3.org/Graphics/SVG/1.1/DTD/svg11.dtd">
<svg version="1.1" id="Capa_1" xmlns="http://www.w3.org/2000/svg" xmlns:xlink="http://www.w3.org/1999/xlink" x="0px" y="0px"
	 width="401.625px" height="401.625px" viewBox="0 0 401.625 401.625" style="fill:#008348;"
	 xml:space="preserve">
<g>
	<path d="M0,9.562v286.875h114.75l19.125,61.2c3.825,19.125,32.513,34.425,66.938,34.425s63.112-15.3,66.938-34.425l0,0l19.125-61.2
		h114.75V9.562H0z M130.05,283.05l-7.65-22.95c9.562,3.825,19.125,7.65,32.513,11.476l3.825,21.037
		C147.263,290.7,137.7,286.875,130.05,283.05z M137.7,306c7.65,1.912,15.3,3.825,24.862,5.737l3.825,19.125
		c-7.65-1.912-15.3-1.912-21.038-3.825L137.7,306z M153,353.812L153,353.812l-1.913-5.737c5.738,1.912,11.475,1.912,17.212,3.825
		l3.825,17.212C160.65,365.287,153,359.55,153,353.812z M191.25,372.938L191.25,372.938l-3.825-19.125c1.913,0,1.913,0,3.825,0
		V372.938z M191.25,334.688c-1.913,0-3.825,0-7.65,0l-3.825-19.125c3.825,0,7.65,0,11.475,0V334.688z M191.25,296.438
		c-5.737,0-9.562,0-13.388,0l-3.825-19.125c5.737,0,11.475,1.912,17.212,1.912V296.438z M210.375,372.938L210.375,372.938v-19.125
		c1.912,0,1.912,0,3.825,0L210.375,372.938z M218.025,334.688c-1.913,0-3.825,0-7.65,0v-19.125c3.825,0,7.65,0,11.475,0
		L218.025,334.688z M223.763,294.525c-3.825,0-9.562,0-13.388,0V275.4c5.737,0,11.475,0,17.213-1.913L223.763,294.525z
		 M248.625,353.812L248.625,353.812c0,5.737-7.65,11.475-19.125,15.3l3.825-17.212c5.737,0,11.475-1.913,17.212-3.825
		L248.625,353.812z M258.188,327.037c-5.737,1.913-13.388,3.825-21.037,3.825l3.824-19.125c9.562-1.912,17.213-3.825,24.863-5.737
		L258.188,327.037z M271.575,283.05c-7.65,3.825-17.213,5.737-28.688,9.562l3.825-21.037c11.475-1.913,22.949-5.737,32.512-11.476
		L271.575,283.05z M200.812,258.188c-47.812,0-86.062-13.388-86.062-28.688s38.25-28.688,86.062-28.688s86.062,13.388,86.062,28.688
		S248.625,258.188,200.812,258.188z M97.538,219.938H76.5V86.062h248.625v133.875h-21.037c-9.562-21.038-51.638-38.25-103.275-38.25
		S107.1,198.9,97.538,219.938z M382.5,277.312h-89.888l11.476-36.338c0,0,0,0,0-1.912h40.162V66.938H57.375v172.125h40.163
		c0,0,0,0,0,1.912l11.475,36.338H19.125V28.688H382.5V277.312z"/>
</g>
<g>
</g>
<g>
</g>
<g>
</g>
<g>
</g>
<g>
</g>
<g>
</g>
<g>
</g>
<g>
</g>
<g>
</g>
<g>
</g>
<g>
</g>
<g>
</g>
<g>
</g>
<g>
</g>
<g>
</g>
</svg>
