<svg version="1.0" xmlns="http://www.w3.org/2000/svg" width="60.000000pt" height="60.000000pt"
                    viewBox="0 0 259.000000 259.000000" preserveAspectRatio="xMidYMid meet">
                    <g transform="translate(0.000000,259.000000) scale(0.100000,-0.100000)" fill="#fff"  stroke="stroke">
                        <path d="M0 1295 l0 -1295 1295 0 1295 0 0 1295 0 1295 -1295 0 -1295 0 0
 -1295z m1180 805 c-22 -14 -40 -12 -40 4 0 17 31 26 45 14 6 -6 5 -12 -5 -18z
 m140 20 c0 -5 -13 -10 -30 -10 -16 0 -30 5 -30 10 0 6 14 10 30 10 17 0 30 -4
 30 -10z m120 -15 c0 -16 -9 -19 -34 -9 -25 9 -19 24 9 24 16 0 25 -6 25 -15z
 m-380 -25 c0 -15 -38 -32 -45 -20 -3 5 -3 15 0 20 8 13 45 13 45 0z m505 0 c3
 -5 3 -15 0 -20 -7 -12 -45 5 -45 20 0 13 37 13 45 0z m-633 -55 c0 -14 -29
 -31 -38 -22 -9 8 16 39 28 35 5 -2 10 -8 10 -13z m758 -15 c0 -16 -17 -19 -35
 -6 -24 18 -11 40 16 26 10 -6 19 -15 19 -20z m-452 -17 c-2 -27 -8 -39 -22
 -41 -22 -5 -31 5 -40 41 -5 20 -3 27 9 27 9 0 15 -9 15 -25 0 -14 5 -25 10
 -25 6 0 10 14 10 30 0 17 5 30 11 30 6 0 9 -16 7 -37z m147 16 c5 -6 5 -13 -2
 -20 -6 -6 -9 -18 -6 -25 6 -17 -13 -19 -20 -1 -4 9 -8 9 -15 -2 -14 -19 -20
 -2 -15 37 5 28 8 32 27 26 11 -3 25 -10 31 -15z m113 -28 c3 -10 0 -12 -14 -7
 -15 6 -17 5 -6 -5 20 -21 14 -39 -13 -39 -28 0 -30 6 -15 45 11 28 40 31 48 6z
 m-400 -3 c28 -28 1 -75 -38 -63 -33 11 -21 75 15 75 6 0 16 -5 23 -12z m502
 -40 c0 -5 -10 -7 -22 -4 -13 3 -17 3 -10 0 17 -8 15 -27 -3 -20 -8 3 -15 1
 -15 -4 0 -6 5 -10 10 -10 6 0 10 -4 10 -10 0 -14 -13 -13 -34 3 -17 12 -17 14
 0 44 16 27 21 29 41 20 13 -6 23 -14 23 -19z m-780 8 c0 -18 -27 -29 -36 -14
 -4 5 0 14 7 19 20 13 29 11 29 -5z m969 0 c9 -10 9 -16 1 -21 -13 -8 -42 14
 -34 26 8 13 20 11 33 -5z m-845 -51 c-18 -13 -18 -14 -1 -20 9 -4 24 -2 32 5
 12 10 15 9 15 -3 0 -9 -9 -21 -19 -27 -46 -24 -80 30 -40 63 15 12 25 15 27 7
 2 -6 -4 -17 -14 -25z m756 -20 c11 -13 7 -19 -11 -17 -4 1 -6 -6 -5 -16 1 -19
 -31 -29 -46 -14 -6 6 -7 16 -3 22 6 9 10 9 17 -1 7 -11 8 -9 4 4 -12 36 20 51
 44 22z m-980 -9 c0 -16 -18 -31 -27 -22 -8 8 5 36 17 36 5 0 10 -6 10 -14z
 m1167 -1 c3 -9 3 -19 -1 -22 -8 -9 -37 18 -30 28 8 14 24 11 31 -6z m-518 -31
 c62 -18 127 -73 152 -129 17 -37 17 -41 2 -52 -14 -11 -20 -6 -45 37 -38 67
 -93 103 -168 108 -32 2 -74 -1 -95 -8 -47 -16 -104 -66 -122 -107 -21 -51 -63
 -41 -44 11 14 35 78 104 115 123 66 35 129 40 205 17z m-719 -58 c0 -16 -14
 -36 -26 -36 -14 0 -19 22 -7 33 7 8 33 10 33 3z m1314 -12 c4 -9 4 -19 2 -22
 -10 -9 -36 8 -36 23 0 20 26 19 34 -1z m-1384 -113 c0 -21 -13 -41 -26 -41
 -17 0 -17 5 -4 31 11 20 30 26 30 10z m110 -19 c0 -23 -4 -28 -22 -27 -12 1
 -24 7 -26 14 -2 7 3 11 14 9 13 -2 18 2 16 15 -2 9 2 17 8 17 5 0 10 -13 10
 -28z m1126 -5 c-2 -14 -10 -21 -24 -21 -12 0 -21 4 -20 9 1 6 8 9 15 7 7 -2
 13 6 13 18 0 12 4 18 10 15 5 -3 8 -16 6 -28z m103 20 c2 -4 1 -16 -2 -26 -4
 -18 -42 -23 -42 -6 0 6 5 9 11 7 7 -1 16 3 20 9 5 9 2 10 -9 6 -16 -6 -32 5
 -22 15 7 7 39 3 44 -5z m109 -16 c3 -16 -1 -22 -10 -19 -7 3 -15 15 -16 27 -3
 16 1 22 10 19 7 -3 15 -15 16 -27z m-1298 -11 c0 -5 -4 -10 -10 -10 -5 0 -10
 5 -10 10 0 6 5 10 10 10 6 0 10 -4 10 -10z m30 0 c0 -5 -4 -10 -10 -10 -5 0
 -10 5 -10 10 0 6 5 10 10 10 6 0 10 -4 10 -10z m35 0 c-3 -5 -10 -10 -16 -10
 -5 0 -9 5 -9 10 0 6 7 10 16 10 8 0 12 -4 9 -10z m1055 1 c0 -6 -4 -13 -10
 -16 -5 -3 -10 1 -10 9 0 9 5 16 10 16 6 0 10 -4 10 -9z m-361 -138 c-7 -73
 -34 -120 -93 -161 -33 -23 -50 -27 -106 -27 -56 0 -73 4 -108 27 -55 37 -90
 100 -98 176 -4 34 -5 62 -3 62 2 0 22 -7 44 -15 82 -29 208 -9 266 43 l31 28
 37 -36 c36 -35 36 -36 30 -97z m-449 36 c0 -43 -3 -79 -6 -79 -3 0 -14 5 -25
 10 -27 15 -28 134 -2 149 10 5 21 7 25 5 5 -3 8 -41 8 -85z m534 75 c34 -33
 14 -154 -25 -154 -5 0 -9 38 -9 85 0 86 6 98 34 69z m330 -35 c-10 -16 -24 -9
 -24 12 0 18 2 19 15 9 8 -7 12 -16 9 -21z m-1234 13 c0 -13 -12 -22 -22 -16
 -10 6 -1 24 13 24 5 0 9 -4 9 -8z m-134 -79 c-24 -133 -28 -178 -23 -263 7
 -122 26 -193 84 -310 39 -79 63 -111 138 -186 100 -101 189 -159 306 -198 148
 -50 252 -56 399 -26 343 70 602 365 626 710 6 85 -1 157 -28 292 -2 7 6 13 17
 13 52 0 74 -294 35 -451 -71 -281 -287 -507 -570 -596 -65 -20 -96 -23 -225
 -23 -172 0 -232 12 -360 74 -250 120 -416 344 -462 623 -14 85 -15 116 -5 202
 16 138 27 176 54 176 18 0 20 -4 14 -37z m414 -13 c0 -6 -43 -10 -109 -10 -90
 0 -110 -3 -115 -16 -3 -9 -6 -69 -6 -135 l0 -119 -33 0 c-48 0 -57 -15 -57
 -92 0 -39 -4 -68 -10 -68 -6 0 -10 31 -10 72 0 81 15 108 62 108 l28 0 0 123
 c0 82 4 127 12 135 15 15 238 17 238 2z m920 -9 c5 -11 10 -72 10 -135 l0
 -116 29 0 c44 0 61 -31 61 -112 0 -39 -4 -68 -10 -68 -6 0 -10 27 -10 62 0 73
 -17 98 -66 98 l-33 0 -3 133 -3 132 -107 3 c-146 4 -140 22 7 22 103 0 115 -2
 125 -19z m-960 -90 c0 -6 -10 -17 -22 -25 l-22 -16 22 -23 22 -23 -30 -29
 c-34 -33 -55 -26 -22 7 l22 22 -23 24 -22 24 28 24 c29 25 47 31 47 15z m784
 -43 c1 -16 8 -24 24 -26 35 -5 26 -24 -10 -20 -26 2 -34 8 -36 26 -4 27 5 58
 15 49 3 -4 6 -17 7 -29z m-512 -73 c72 -34 147 -34 214 0 48 24 50 25 104 9
 117 -34 185 -85 231 -174 19 -38 24 -64 27 -162 l4 -118 -76 0 -76 0 0 140 c0
 127 -2 140 -19 150 -12 6 -126 10 -301 10 -175 0 -289 -4 -301 -10 -17 -10
 -19 -23 -19 -150 l0 -140 -76 0 -76 0 4 123 c3 101 7 129 25 163 35 66 113
 129 196 157 39 14 75 26 79 26 3 1 30 -10 60 -24z m150 -341 c14 -29 5 -51
 -27 -66 -50 -23 -90 53 -44 85 26 19 58 10 71 -19z m-625 -6 c24 -23 33 -41
 33 -65 0 -18 -4 -33 -10 -33 -5 0 -10 13 -10 28 0 18 -11 38 -30 57 -29 28
 -38 45 -23 45 4 0 22 -14 40 -32z m1213 24 c0 -5 -13 -21 -30 -37 -19 -18 -30
 -39 -30 -56 0 -15 -4 -31 -10 -34 -6 -4 -10 9 -10 31 0 25 9 47 28 69 25 32
 52 45 52 27z m-945 -242 c4 -6 120 -10 315 -10 195 0 311 4 315 10 9 14 75 13
 75 -2 0 -6 -10 -22 -22 -35 l-21 -23 -346 0 c-340 0 -345 0 -368 22 -33 31
 -29 48 11 48 19 0 38 -4 41 -10z" />
                        <path d="M1455 1950 c3 -5 8 -10 11 -10 2 0 4 5 4 10 0 6 -5 10 -11 10 -5 0
 -7 -4 -4 -10z" />
                        <path d="M1065 1960 c-4 -6 -3 -16 3 -22 6 -6 12 -6 17 2 4 6 3 16 -3 22 -6 6
 -12 6 -17 -2z" />
                    </g>
                </svg>